<?xml version="1.0" encoding="UTF-8" standalone="no"?>
<svg
   viewBox="0 0 16 16"
   version="1.1"
   id="svg134"
   sodipodi:docname="icon-scholar.svg"
   inkscape:version="1.2 (dc2aeda, 2022-05-15)"
   xml:space="preserve"
   xmlns:inkscape="http://www.inkscape.org/namespaces/inkscape"
   xmlns:sodipodi="http://sodipodi.sourceforge.net/DTD/sodipodi-0.dtd"
   xmlns="http://www.w3.org/2000/svg"
   xmlns:svg="http://www.w3.org/2000/svg"><defs
     id="defs138" /><sodipodi:namedview
     id="namedview136"
     pagecolor="#ffffff"
     bordercolor="#000000"
     borderopacity="0.25"
     inkscape:showpageshadow="2"
     inkscape:pageopacity="0.0"
     inkscape:pagecheckerboard="0"
     inkscape:deskcolor="#d1d1d1"
     showgrid="false"
     inkscape:zoom="25.304503"
     inkscape:cx="12.566933"
     inkscape:cy="14.878775"
     inkscape:window-width="2483"
     inkscape:window-height="1387"
     inkscape:window-x="264"
     inkscape:window-y="25"
     inkscape:window-maximized="0"
     inkscape:current-layer="svg134" /><path
     d="M 1.7142867,0 C 0.76785941,0 0,0.7678553 0,1.7142881 V 14.285714 C 0,15.23214 0.76785941,16 1.7142867,16 H 14.285713 c 0.946432,0 1.714286,-0.76786 1.714286,-1.714286 V 1.7142881 C 15.999999,0.7678553 15.232145,0 14.285713,0 Z M 6.739116,2.2857169 h 6.365727 l -0.588241,0.4592603 v 0.8104797 c 0.218423,0.028037 0.19531,0.1592963 0.19531,0.3163334 v 3.8293792 c 0,0.1773487 -0.145069,0.3224772 -0.322401,0.3224772 h -0.118723 c -0.177342,0 -0.322476,-0.1451384 -0.322476,-0.3224772 V 3.8717903 c 0,-0.157426 -0.02286,-0.2888068 0.197198,-0.3164728 V 3.0458305 L 10.4518,4.4348508 c 0.01958,0.036256 0.03811,0.059551 0.0558,0.089983 0.148814,0.2634785 0.224609,0.5910397 0.224609,0.9914179 0,0.3069052 -0.05115,0.5826812 -0.154857,0.8261042 C 10.474116,6.5858352 10.348548,6.7846618 10.20208,6.9378503 10.055606,7.0915687 9.9086693,7.2319987 9.7617175,7.3584727 9.6148155,7.4851878 9.489253,7.6172773 9.3864402,7.7544656 9.2828206,7.8911881 9.231165,8.0325893 9.231165,8.179063 c 0,0.1467133 0.066998,0.2957414 0.2004753,0.4459359 0.1329935,0.150667 0.2966184,0.2966585 0.4900952,0.4408502 0.1939055,0.1432354 0.3873715,0.3022429 0.5808435,0.4752359 0.193895,0.1727109 0.356682,0.3950382 0.489676,0.665043 0.133945,0.2709 0.200894,0.569186 0.200894,0.897043 0,0.432472 -0.11027,0.823066 -0.330217,1.170687 -0.22043,0.346182 -0.507813,0.622458 -0.86077,0.824986 -0.3538925,0.203907 -0.7324026,0.357368 -1.1360232,0.461078 -0.404567,0.102763 -0.8058912,0.154358 -1.2067522,0.154358 -0.2530076,0 -0.5083066,-0.01952 -0.765065,-0.0595 C 6.6367462,13.61478 6.3786727,13.544125 6.1187213,13.44461 5.8583066,13.344371 5.627615,13.221369 5.4276627,13.073515 5.2272321,12.927278 5.0658846,12.738452 4.9421752,12.508503 4.8184606,12.278557 4.7570471,12.01998 4.7570471,11.732832 c 0,-0.340663 0.094889,-0.656619 0.2850869,-0.95124 0.190179,-0.292473 0.4422202,-0.536624 0.7556455,-0.73005 C 6.3446857,9.7113466 7.2026559,9.5011379 8.3703253,9.4216571 8.1034251,9.0879882 7.9695191,8.7738105 7.9695191,8.4799016 c 0,-0.1672348 0.043635,-0.3464209 0.1301603,-0.5398977 -0.1395195,0.019522 -0.283164,0.030481 -0.4296875,0.030481 -0.6272387,0 -1.1569797,-0.2039074 -1.5871254,-0.6145372 C 5.6527256,6.9460021 5.4379191,6.4328731 5.4379191,5.8124939 c 0,-0.06485 0.00199,-0.1220888 0.00648,-0.1853381 H 2.8951556 Z m 1.1206764,1.3690664 c -0.3999594,0 -0.7068491,0.1438916 -0.9207588,0.4310857 -0.21385,0.286433 -0.3208672,0.6333821 -0.3208672,1.0409425 0,0.3471378 0.05859,0.7005867 0.1757784,1.0609653 0.116721,0.3601997 0.3079008,0.6817697 0.5757526,0.9651923 0.2669002,0.284146 0.5775706,0.4259213 0.9305271,0.4259213 0.3934239,0 0.7008168,-0.131768 0.921247,-0.3954369 0.2194638,-0.2632292 0.329659,-0.5954774 0.329659,-0.9956767 0,-0.3408956 -0.058086,-0.6977486 -0.174807,-1.0709381 C 9.2600363,4.74318 9.0661462,4.4060298 8.7954802,4.1058901 8.5257554,3.8047383 8.2132169,3.6547833 7.8597924,3.6547833 Z m 0.6613454,6.1457199 c -0.2869548,0 -0.5692521,0.025461 -0.8464038,0.076105 -0.2771467,0.049265 -0.5505972,0.1324898 -0.820312,0.2499288 -0.270666,0.116774 -0.4892183,0.288389 -0.6556917,0.515346 -0.1674247,0.226666 -0.2506963,0.493631 -0.2506963,0.800779 0,0.292708 0.073539,0.553796 0.220495,0.78118 0.146523,0.225989 0.3399255,0.402998 0.5803553,0.529716 0.24043,0.126961 0.4924563,0.222721 0.7556505,0.285714 0.2636723,0.06257 0.5320272,0.09515 0.8054528,0.09515 0.5408092,0 1.006277,-0.121827 1.3969066,-0.365305 0.3896578,-0.243423 0.5850278,-0.619359 0.5850278,-1.126743 0,-0.106717 -0.0149,-0.211857 -0.04423,-0.314381 -0.03069,-0.103715 -0.06085,-0.192476 -0.09061,-0.266184 -0.02979,-0.07233 -0.0865,-0.159542 -0.1702048,-0.259976 C 9.9036335,10.701172 9.8398884,10.626744 9.7970747,10.577226 9.7533891,10.526074 9.6716418,10.453037 9.5511205,10.356521 9.4316802,10.259598 9.3553924,10.199177 9.3214203,10.176833 h -7.48e-5 C 9.2878715,10.153373 9.2009287,10.089851 9.0609557,9.9868224 8.9209926,9.8828615 8.8442914,9.8277394 8.8307622,9.8212265 8.7572888,9.8079382 8.6541173,9.8005065 8.5211229,9.8005065 Z"
     id="path3027"
     style="stroke-width:0.0357143;fill:#808080" /></svg>
