<?xml version="1.0" encoding="UTF-8" standalone="no"?>
<svg
   viewBox="0 0 16 16"
   version="1.1"
   id="svg134"
   sodipodi:docname="icon-bluesky.svg"
   inkscape:version="1.2 (dc2aeda, 2022-05-15)"
   xmlns:inkscape="http://www.inkscape.org/namespaces/inkscape"
   xmlns:sodipodi="http://sodipodi.sourceforge.net/DTD/sodipodi-0.dtd"
   xmlns="http://www.w3.org/2000/svg"
   xmlns:svg="http://www.w3.org/2000/svg">
  <defs
     id="defs138" />
  <sodipodi:namedview
     id="namedview136"
     pagecolor="#ffffff"
     bordercolor="#000000"
     borderopacity="0.25"
     inkscape:showpageshadow="2"
     inkscape:pageopacity="0.0"
     inkscape:pagecheckerboard="0"
     inkscape:deskcolor="#d1d1d1"
     showgrid="false"
     inkscape:zoom="9.9644239"
     inkscape:cx="34.021034"
     inkscape:cy="15.605518"
     inkscape:window-width="2483"
     inkscape:window-height="1387"
     inkscape:window-x="0"
     inkscape:window-y="25"
     inkscape:window-maximized="0"
     inkscape:current-layer="svg134" />
  <path
     d="m 3.5673097,2.0377397 c 1.7942505,1.347007 3.7241683,4.07818 4.4327375,5.543887 0.7086186,-1.465598 2.6384318,-4.196905 4.4327328,-5.543887 1.294636,-0.971949 3.39228,-1.72398503 3.39228,0.669037 0,0.477922 -0.274015,4.014773 -0.434723,4.588965 -0.558625,1.996297 -2.594236,2.505464 -4.404942,2.197292 3.165082,0.5386853 3.970248,2.3230053 2.231395,4.1073213 -3.3024224,3.388771 -4.746542,-0.850256 -5.1167466,-1.936449 -0.067834,-0.199124 -0.099579,-0.292277 -0.1000458,-0.213064 -4.665e-4,-0.07921 -0.032207,0.01394 -0.100041,0.213064 C 7.5299108,12.750099 6.085821,16.989235 2.783205,13.600355 1.0443271,11.816039 1.8494682,10.03161 5.0146005,9.4930337 c -1.8107611,0.308172 -3.8463971,-0.201 -4.40494205,-2.197292 -0.1607136,-0.574247 -0.4347182,-4.111097 -0.4347182,-4.588965 0,-2.39302203 2.09769825,-1.640986 3.39228015,-0.669037 z"
     fill="#1185fe"
     id="path361"
     style="fill:#808080;stroke-width:0.0269828" />
</svg>
